<?xml version="1.0" standalone="no"?>
<!DOCTYPE svg PUBLIC "-//W3C//DTD SVG 20010904//EN"
 "http://www.w3.org/TR/2001/REC-SVG-20010904/DTD/svg10.dtd">
<svg version="1.0" xmlns="http://www.w3.org/2000/svg"
 width="477.000000pt" height="94.000000pt" viewBox="0 0 477.000000 94.000000"
 preserveAspectRatio="xMidYMid meet">

<g transform="translate(0.000000,94.000000) scale(0.100000,-0.100000)"
fill="#000000" stroke="none">
<path d="M329 869 c-34 -17 -99 -99 -99 -123 1 -6 8 3 17 19 21 40 62 84 95
101 31 16 78 19 78 4 0 -5 6 -7 13 -4 14 5 60 -33 90 -76 17 -25 17 -25 2 7
-8 17 -26 40 -40 51 -14 11 -25 23 -25 27 0 4 24 5 54 3 64 -5 116 -39 146
-96 10 -20 19 -32 20 -27 0 20 -39 73 -76 101 -35 27 -44 29 -138 31 -81 1
-108 -2 -137 -18z"/>
<path d="M378 833 c-29 -32 -52 -72 -45 -80 3 -2 8 5 12 17 4 12 20 37 37 56
36 41 33 46 -4 7z"/>
<path d="M547 736 l6 -29 -107 5 c-78 3 -110 9 -117 19 -7 11 -9 11 -9 1 0 -9
-16 -13 -52 -12 -29 1 -71 -5 -93 -14 l-40 -15 37 -1 37 0 -4 -57 -4 -58 9 45
c14 64 17 70 35 64 12 -5 15 -27 15 -120 l0 -114 59 0 c32 0 86 -3 120 -6 l61
-7 0 111 c0 61 3 113 8 115 4 3 19 3 34 0 22 -4 28 -11 31 -42 l4 -36 1 38 c2
35 4 37 37 37 l35 0 0 -297 0 -296 23 21 c13 12 35 22 50 22 l27 0 0 295 0
295 -29 0 c-23 0 -31 5 -34 23 l-4 22 -2 -22 c-1 -20 -7 -23 -38 -23 -58 0
-79 9 -91 38 l-11 27 6 -29z"/>
<path d="M1019 654 c-67 -20 -133 -83 -158 -150 -44 -116 -19 -264 56 -336 58
-55 98 -71 191 -76 98 -5 154 12 215 67 62 56 87 119 87 221 0 103 -25 165
-88 222 -70 63 -197 85 -303 52z m190 -103 c61 -44 88 -129 71 -223 -18 -94
-71 -143 -155 -143 -65 0 -100 23 -132 85 -41 79 -24 223 30 269 51 41 138 47
186 12z"/>
<path d="M1480 648 c0 -7 26 -132 58 -278 l59 -265 79 -3 80 -3 49 201 c26
110 50 199 51 197 2 -1 24 -84 49 -182 25 -99 48 -188 51 -197 4 -15 18 -18
84 -18 74 0 78 1 84 24 3 13 28 131 56 262 28 132 53 247 56 257 5 15 -2 17
-55 17 -48 0 -61 -3 -65 -17 -4 -15 -53 -289 -72 -402 -3 -18 -7 -31 -9 -29
-3 3 -99 366 -112 426 -5 20 -11 22 -62 22 l-56 0 -37 -143 c-21 -78 -45 -176
-55 -217 -9 -41 -19 -78 -23 -83 -3 -4 -24 94 -46 218 l-39 225 -62 0 c-44 0
-63 -4 -63 -12z"/>
<path d="M258 215 l-3 -124 26 24 c14 14 35 25 47 25 21 0 22 4 22 100 l0 100
-44 0 -45 0 -3 -125z"/>
</g>
</svg>
